<?xml version="1.0" encoding="UTF-8"?>
<svg id="Layer_1" data-name="Layer 1" xmlns="http://www.w3.org/2000/svg" viewBox="0 0 1000 1000">
  <defs>
    <style>
      .cls-1 {
        fill: #fff;
      }

      .cls-2 {
        fill: #231f20;
      }
    </style>
  </defs>
  <path class="cls-1" d="m128.67,51.01l-.04-.02,443.82,440.07h0S128.67,51.01,128.67,51.01Zm443.78,454.13l-443.8,440.06,443.8-440.05h.01s-.01,0-.01,0Z"/>
  <path class="cls-1" d="m572.46,505.14h-.01s117.16,116.17,117.16,116.17l-117.15-116.17Zm-.01-14.09h0s.01.01.01.01l117.16-116.18-117.17,116.17Z"/>
  <g>
    <polygon class="cls-2" points="565.35 498.1 112.8 946.84 110.83 948.79 110.83 47.41 116.25 52.78 565.35 498.1"/>
    <polygon class="cls-2" points="689.61 621.31 506.93 726.78 128.65 945.2 572.45 505.14 572.46 505.14 689.61 621.31"/>
    <polygon class="cls-2" points="689.62 374.88 572.46 491.06 572.45 491.06 128.63 50.99 128.67 51.01 506.93 269.41 689.62 374.88"/>
    <polygon class="cls-2" points="903.05 498.1 892.8 504.02 698.59 616.13 579.56 498.1 698.6 380.06 893.22 492.42 903.05 498.1"/>
  </g>
</svg>