<?xml version="1.0" encoding="UTF-8"?>
<svg id="Layer_1" data-name="Layer 1" xmlns="http://www.w3.org/2000/svg" viewBox="0 0 1000 1000">
  <path d="m844,356.42c-20.9,13.54-38.39,29.37-53.68,47.77-69.3,83.4-56.9,218.46,41.24,285.57,9.42,6.44,19.42,12.15,29.59,17.33,5.17,2.63,5.89,4.95,4.13,10.25-18.12,54.68-45.77,104.32-80.7,149.77-14.74,19.18-30.64,37.99-48.61,54.05-33.59,30.01-73.13,34.91-115.14,20.06-15.5-5.48-30.32-12.86-45.83-18.31-41.8-14.68-83.24-12.57-124.34,3.54-19.17,7.51-38.29,15.73-58.17,20.72-38.95,9.77-71.29-5-99.14-31.55-32.65-31.13-58.35-67.77-81.28-106.26-40.96-68.75-66.09-143.23-75.11-222.7-6.52-57.49-3.76-114.58,18.11-169.08,30.05-74.9,82.93-124.61,162.62-143.51,36.45-8.65,72.04-4.96,106.86,8.29,19.01,7.24,38.06,14.38,57.15,21.41,16.34,6.01,32.67,6.05,49.12-.02,25.88-9.56,51.54-19.88,77.87-28,81.51-25.17,172.6,2.76,226.03,68.38,2.99,3.67,5.71,7.55,9.29,12.29Z"/>
  <path d="m680.33,49.83c4.04,55.61-13.6,102.9-47.87,144.28-26.46,31.95-59.96,53.2-101.11,61.19-7.63,1.48-15.53,1.48-23.29,2.36-6.71.76-9.04-1.67-9.36-8.74-1.89-41.67,11.35-78.76,34.52-112.42,32.83-47.68,78.46-75.99,135.41-86.09,1.92-.34,3.89-.45,5.84-.55,1.61-.09,3.24-.02,5.86-.02Z"/>
</svg>